<svg xmlns="http://www.w3.org/2000/svg" version="1.1" xmlns:xlink="http://www.w3.org/1999/xlink" xmlns:svgjs="http://svgjs.dev/svgjs" viewBox="0 0 800 800"><defs><linearGradient x1="50%" y1="0%" x2="50%" y2="100%" id="ffflurry-grad" gradientTransform="rotate(270)"><stop stop-color="#1a003d" stop-opacity="1" offset="0%"></stop><stop stop-color="hsl(265, 55%, 30%)" stop-opacity="1" offset="45%"></stop><stop stop-color="hsl(265, 55%, 60%)" stop-opacity="1" offset="100%"></stop></linearGradient></defs><rect width="100%" height="100%" fill="#1a003d"></rect><g fill="url(#ffflurry-grad)"><rect width="75" height="1" x="35.5" y="124.5" rx="0.5" transform="rotate(45, 73, 125)" opacity="0.97"></rect><rect width="443" height="1" x="526.5" y="728.5" rx="0.5" transform="rotate(45, 748, 729)" opacity="0.88"></rect><rect width="96" height="1" x="332" y="124.5" rx="0.5" transform="rotate(45, 380, 125)" opacity="0.27"></rect><rect width="124" height="1" x="393" y="505.5" rx="0.5" transform="rotate(45, 455, 506)" opacity="0.73"></rect><rect width="125" height="1" x="673.5" y="243.5" rx="0.5" transform="rotate(45, 736, 244)" opacity="0.79"></rect><rect width="155" height="1" x="199.5" y="741.5" rx="0.5" transform="rotate(45, 277, 742)" opacity="0.16"></rect><rect width="266" height="1" x="-73" y="42.5" rx="0.5" transform="rotate(45, 60, 43)" opacity="0.16"></rect><rect width="124" height="1" x="448" y="58.5" rx="0.5" transform="rotate(45, 510, 59)" opacity="0.22"></rect><rect width="124" height="1" x="715" y="207.5" rx="0.5" transform="rotate(45, 777, 208)" opacity="0.88"></rect><rect width="109" height="1" x="325.5" y="703.5" rx="0.5" transform="rotate(45, 380, 704)" opacity="0.25"></rect><rect width="220" height="1" x="144" y="50.5" rx="0.5" transform="rotate(45, 254, 51)" opacity="0.55"></rect><rect width="162" height="1" x="612" y="196.5" rx="0.5" transform="rotate(45, 693, 197)" opacity="0.09"></rect><rect width="219" height="1" x="642.5" y="419.5" rx="0.5" transform="rotate(45, 752, 420)" opacity="0.47"></rect><rect width="374" height="1" x="169" y="426.5" rx="0.5" transform="rotate(45, 356, 427)" opacity="0.57"></rect><rect width="90" height="1" x="-17" y="719.5" rx="0.5" transform="rotate(45, 28, 720)" opacity="0.84"></rect><rect width="254" height="1" x="-53" y="635.5" rx="0.5" transform="rotate(45, 74, 636)" opacity="0.99"></rect><rect width="71" height="1" x="142.5" y="707.5" rx="0.5" transform="rotate(45, 178, 708)" opacity="0.64"></rect><rect width="257" height="1" x="510.5" y="518.5" rx="0.5" transform="rotate(45, 639, 519)" opacity="0.59"></rect><rect width="323" height="1" x="-135.5" y="183.5" rx="0.5" transform="rotate(45, 26, 184)" opacity="0.48"></rect><rect width="157" height="1" x="518.5" y="177.5" rx="0.5" transform="rotate(45, 597, 178)" opacity="0.71"></rect><rect width="144" height="1" x="163" y="224.5" rx="0.5" transform="rotate(45, 235, 225)" opacity="0.66"></rect><rect width="104" height="1" x="646" y="274.5" rx="0.5" transform="rotate(45, 698, 275)" opacity="0.87"></rect><rect width="264" height="1" x="238" y="40.5" rx="0.5" transform="rotate(45, 370, 41)" opacity="0.28"></rect><rect width="263" height="1" x="29.5" y="297.5" rx="0.5" transform="rotate(45, 161, 298)" opacity="0.63"></rect><rect width="249" height="1" x="420.5" y="112.5" rx="0.5" transform="rotate(45, 545, 113)" opacity="0.95"></rect><rect width="335" height="1" x="285.5" y="94.5" rx="0.5" transform="rotate(45, 453, 95)" opacity="0.44"></rect><rect width="217" height="1" x="195.5" y="163.5" rx="0.5" transform="rotate(45, 304, 164)" opacity="0.12"></rect><rect width="383" height="1" x="381.5" y="367.5" rx="0.5" transform="rotate(45, 573, 368)" opacity="0.57"></rect><rect width="599" height="1" x="355.5" y="657.5" rx="0.5" transform="rotate(45, 655, 658)" opacity="0.49"></rect><rect width="252" height="1" x="288" y="594.5" rx="0.5" transform="rotate(45, 414, 595)" opacity="0.19"></rect><rect width="208" height="1" x="-57" y="300.5" rx="0.5" transform="rotate(45, 47, 301)" opacity="0.54"></rect><rect width="366" height="1" x="228" y="317.5" rx="0.5" transform="rotate(45, 411, 318)" opacity="0.47"></rect><rect width="264" height="1" x="607" y="149.5" rx="0.5" transform="rotate(45, 739, 150)" opacity="0.76"></rect><rect width="278" height="1" x="519" y="410.5" rx="0.5" transform="rotate(45, 658, 411)" opacity="0.41"></rect><rect width="63" height="1" x="496.5" y="19.5" rx="0.5" transform="rotate(45, 528, 20)" opacity="0.56"></rect><rect width="93" height="1" x="30.5" y="532.5" rx="0.5" transform="rotate(45, 77, 533)" opacity="0.32"></rect><rect width="470" height="1" x="-29" y="428.5" rx="0.5" transform="rotate(45, 206, 429)" opacity="0.84"></rect><rect width="256" height="1" x="388" y="436.5" rx="0.5" transform="rotate(45, 516, 437)" opacity="0.87"></rect><rect width="293" height="1" x="490.5" y="47.5" rx="0.5" transform="rotate(45, 637, 48)" opacity="0.20"></rect><rect width="402" height="1" x="6" y="592.5" rx="0.5" transform="rotate(45, 207, 593)" opacity="0.28"></rect><rect width="204" height="1" x="436" y="611.5" rx="0.5" transform="rotate(45, 538, 612)" opacity="0.68"></rect><rect width="267" height="1" x="-35.5" y="760.5" rx="0.5" transform="rotate(45, 98, 761)" opacity="0.14"></rect><rect width="144" height="1" x="234" y="308.5" rx="0.5" transform="rotate(45, 306, 309)" opacity="0.99"></rect><rect width="464" height="1" x="-165" y="415.5" rx="0.5" transform="rotate(45, 67, 416)" opacity="0.92"></rect><rect width="92" height="1" x="705" y="56.5" rx="0.5" transform="rotate(45, 751, 57)" opacity="0.92"></rect><rect width="273" height="1" x="476.5" y="754.5" rx="0.5" transform="rotate(45, 613, 755)" opacity="0.74"></rect><rect width="73" height="1" x="628.5" y="122.5" rx="0.5" transform="rotate(45, 665, 123)" opacity="0.92"></rect><rect width="250" height="1" x="394" y="188.5" rx="0.5" transform="rotate(45, 519, 189)" opacity="0.66"></rect><rect width="147" height="1" x="38.5" y="205.5" rx="0.5" transform="rotate(45, 112, 206)" opacity="0.90"></rect><rect width="362" height="1" x="581" y="317.5" rx="0.5" transform="rotate(45, 762, 318)" opacity="0.89"></rect><rect width="356" height="1" x="419" y="274.5" rx="0.5" transform="rotate(45, 597, 275)" opacity="0.89"></rect><rect width="161" height="1" x="587.5" y="324.5" rx="0.5" transform="rotate(45, 668, 325)" opacity="0.57"></rect><rect width="136" height="1" x="418" y="743.5" rx="0.5" transform="rotate(45, 486, 744)" opacity="0.62"></rect><rect width="84" height="1" x="458" y="290.5" rx="0.5" transform="rotate(45, 500, 291)" opacity="0.58"></rect><rect width="163" height="1" x="86.5" y="91.5" rx="0.5" transform="rotate(45, 168, 92)" opacity="0.13"></rect><rect width="155" height="1" x="344.5" y="204.5" rx="0.5" transform="rotate(45, 422, 205)" opacity="0.15"></rect><rect width="543" height="1" x="34.5" y="553.5" rx="0.5" transform="rotate(45, 306, 554)" opacity="0.38"></rect><rect width="166" height="1" x="568" y="224.5" rx="0.5" transform="rotate(45, 651, 225)" opacity="0.48"></rect><rect width="149" height="1" x="676.5" y="562.5" rx="0.5" transform="rotate(45, 751, 563)" opacity="0.38"></rect></g></svg>